<svg width="296" height="115" viewBox="0 0 296 115" fill="none" xmlns="http://www.w3.org/2000/svg">
<path opacity="0.5" d="M220.6 35V41.14H213V35H211.6V49H213V42.46H220.6V49H222V35H220.6ZM233.194 39V40.96C232.354 39.62 230.934 38.76 229.154 38.76C226.334 38.76 223.994 41.04 223.994 44C223.994 46.96 226.334 49.24 229.154 49.24C230.934 49.24 232.354 48.38 233.194 47.04V49H234.514V39H233.194ZM229.254 47.96C227.034 47.96 225.314 46.22 225.314 44C225.314 41.78 227.034 40.04 229.254 40.04C231.474 40.04 233.194 41.78 233.194 44C233.194 46.22 231.474 47.96 229.254 47.96ZM242.269 38.76C240.489 38.76 239.069 39.62 238.229 40.96V39H236.909V53H238.229V47.04C239.069 48.38 240.489 49.24 242.269 49.24C245.089 49.24 247.429 46.96 247.429 44C247.429 41.04 245.089 38.76 242.269 38.76ZM242.169 47.96C239.949 47.96 238.229 46.22 238.229 44C238.229 41.78 239.949 40.04 242.169 40.04C244.389 40.04 246.109 41.78 246.109 44C246.109 46.22 244.389 47.96 242.169 47.96ZM254.583 38.76C252.803 38.76 251.383 39.62 250.543 40.96V39H249.223V53H250.543V47.04C251.383 48.38 252.803 49.24 254.583 49.24C257.403 49.24 259.743 46.96 259.743 44C259.743 41.04 257.403 38.76 254.583 38.76ZM254.483 47.96C252.263 47.96 250.543 46.22 250.543 44C250.543 41.78 252.263 40.04 254.483 40.04C256.703 40.04 258.423 41.78 258.423 44C258.423 46.22 256.703 47.96 254.483 47.96ZM268.348 39L265.108 47.38L261.348 39H259.948L264.428 49.06L264.168 49.68C263.628 50.98 262.728 51.9 261.428 51.76V53C263.228 53.14 264.708 51.84 265.468 49.92L269.748 39H268.348ZM218.14 81.24C220.76 81.24 223.06 79.86 224.2 77.78L222.96 77.08C222.1 78.76 220.24 79.88 218.14 79.88C214.6 79.88 212.2 77.26 212.2 74C212.2 70.74 214.6 68.12 218.14 68.12C220.24 68.12 222.1 69.24 222.96 70.92L224.2 70.2C223.04 68.12 220.74 66.76 218.14 66.76C213.84 66.76 210.8 70 210.8 74C210.8 78 213.84 81.24 218.14 81.24ZM232.942 71V76.24C232.942 78.92 231.462 79.96 229.702 79.96C227.962 79.96 226.982 78.92 226.982 77.14V71H225.662V77.14C225.662 79.64 227.142 81.24 229.582 81.24C231.002 81.24 232.162 80.7 232.942 79.44V81H234.262V71H232.942ZM237.695 73.62C237.695 72.54 238.755 72.04 239.795 72.04C240.755 72.04 241.775 72.42 242.195 73.44L243.295 72.8C242.715 71.56 241.435 70.76 239.795 70.76C237.795 70.76 236.375 72.02 236.375 73.62C236.375 77.3 242.215 75.88 242.215 78.36C242.215 79.54 241.095 79.96 239.915 79.96C238.575 79.96 237.535 79.3 237.175 78.28L236.055 78.94C236.555 80.22 237.915 81.24 239.915 81.24C242.055 81.24 243.535 80.06 243.535 78.36C243.535 74.68 237.695 76.1 237.695 73.62ZM250.246 72.28V71H247.366V68.2L246.046 68.6V71H243.946V72.28H246.046V78.34C246.046 80.74 247.546 81.4 250.246 81V79.84C248.306 79.92 247.366 80.06 247.366 78.34V72.28H250.246ZM256.101 81.24C259.021 81.24 261.361 78.96 261.361 76C261.361 73.04 259.021 70.76 256.101 70.76C253.181 70.76 250.841 73.04 250.841 76C250.841 78.96 253.181 81.24 256.101 81.24ZM256.101 79.96C253.881 79.96 252.161 78.22 252.161 76C252.161 73.78 253.881 72.04 256.101 72.04C258.321 72.04 260.041 73.78 260.041 76C260.041 78.22 258.321 79.96 256.101 79.96ZM273.83 70.76C272.55 70.76 271.33 71.34 270.59 72.58C270.03 71.42 268.95 70.76 267.55 70.76C266.35 70.76 265.27 71.24 264.49 72.46V71H263.17V81H264.49V75.46C264.49 72.98 265.93 72.04 267.37 72.04C268.79 72.04 269.71 72.98 269.71 74.76V81H271.03V75.46C271.03 72.98 272.27 72.04 273.81 72.04C275.23 72.04 276.25 72.98 276.25 74.76V81H277.57V74.76C277.57 72.26 276.03 70.76 273.83 70.76ZM284.343 70.76C281.243 70.76 279.123 73.06 279.123 76C279.123 79.02 281.283 81.24 284.443 81.24C286.463 81.24 288.003 80.3 288.843 78.94L287.683 78.26C287.143 79.22 286.043 79.96 284.463 79.96C282.343 79.96 280.763 78.7 280.483 76.66H289.263C289.283 76.46 289.303 76.24 289.303 76.04C289.303 73.3 287.403 70.76 284.343 70.76ZM284.343 72.04C286.063 72.04 287.663 73.18 287.943 75.38H280.483C280.743 73.42 282.243 72.04 284.343 72.04ZM292.322 72.66V71H291.002V81H292.322V75.44C292.322 72.96 293.882 72.12 295.482 72.12V70.84C294.202 70.84 293.022 71.26 292.322 72.66Z" fill="#121211"/>
<path d="M20.008 48.622C23.78 48.622 26.7593 49.524 28.946 51.328C31.1873 53.0773 32.308 55.6193 32.308 58.954C32.308 61.1407 31.7887 63.218 30.75 65.186C29.766 67.0993 28.454 68.958 26.814 70.762C25.174 72.5113 23.4247 74.2333 21.566 75.928C19.7073 77.568 17.9033 79.208 16.154 80.848C14.4047 82.4333 12.9287 84.046 11.726 85.686H28.372C30.6133 85.686 32.0347 85.3853 32.636 84.784C33.2373 84.128 33.6473 83.0347 33.866 81.504H35.26C35.26 84.4013 35.2873 86.6427 35.342 88.228C35.3967 89.7587 35.4787 91.1527 35.588 92.41C35.096 92.3007 34.194 92.2187 32.882 92.164C31.57 92.1093 30.0667 92.0547 28.372 92C26.6773 92 25.01 92 23.37 92H4.182V90.606C5.822 88.802 7.79 86.8887 10.086 84.866C12.382 82.7887 14.596 80.5473 16.728 78.142C18.9147 75.682 20.7187 73.0307 22.14 70.188C23.616 67.2907 24.354 64.1473 24.354 60.758C24.354 57.642 23.616 55.4007 22.14 54.034C20.7187 52.6127 18.7233 51.902 16.154 51.902C13.9673 51.902 11.9447 52.558 10.086 53.87C8.22733 55.1273 6.58733 57.0407 5.166 59.61L3.854 58.872C4.674 57.1227 5.76733 55.4827 7.134 53.952C8.55533 52.3667 10.3047 51.082 12.382 50.098C14.514 49.114 17.056 48.622 20.008 48.622ZM67.2823 48.622L67.6103 50.754L44.5683 83.39L44.4863 82.078H69.5783C71.8196 82.078 73.2409 81.7773 73.8423 81.176C74.4436 80.52 74.8536 79.4267 75.0723 77.896H76.4663C76.4663 80.5747 76.4936 82.6247 76.5483 84.046C76.6029 85.4673 76.685 86.7793 76.7943 87.982C76.4116 87.8727 75.783 87.818 74.9083 87.818C74.0883 87.7633 73.1043 87.7087 71.9563 87.654C70.8083 87.5993 69.6056 87.572 68.3483 87.572C67.0909 87.572 65.8336 87.572 64.5763 87.572H40.6323V85.85L67.2823 48.622ZM68.5943 48.622V103.562H62.0343V57.314L67.2823 48.622H68.5943ZM130.188 33.944V35.584C128.493 35.8027 126.853 36.3493 125.268 37.224C123.682 38.0987 122.097 39.5473 120.512 41.57L104.686 61.824L106.49 57.806L126.17 85.358C127.099 86.7247 128.11 87.7907 129.204 88.556C130.297 89.3213 131.691 89.9227 133.386 90.36V92C132.074 91.8907 130.434 91.836 128.466 91.836C126.552 91.7813 124.912 91.754 123.546 91.754C122.616 91.754 121.468 91.7813 120.102 91.836C118.79 91.836 117.122 91.8907 115.1 92V90.36C116.958 90.2507 118.134 89.9227 118.626 89.376C119.118 88.8293 118.926 87.9273 118.052 86.67L106.08 68.63C104.986 66.9353 104.002 65.678 103.128 64.858C102.308 63.9833 101.433 63.4093 100.504 63.136C99.6291 62.8627 98.5085 62.6987 97.1418 62.644V61.004C99.4378 60.9493 101.351 60.512 102.882 59.692C104.467 58.8173 105.779 57.724 106.818 56.412L114.69 46.408C116.494 44.112 117.724 42.1713 118.38 40.586C119.036 39.0007 119.008 37.798 118.298 36.978C117.587 36.1033 116.084 35.6387 113.788 35.584V33.944C114.826 33.9987 115.892 34.0533 116.986 34.108C118.079 34.108 119.145 34.1353 120.184 34.19C121.277 34.19 122.288 34.19 123.218 34.19C124.639 34.19 125.951 34.1627 127.154 34.108C128.356 34.0533 129.368 33.9987 130.188 33.944ZM104.112 33.944V35.584C102.253 35.6387 100.832 35.8573 99.8478 36.24C98.9185 36.568 98.2898 37.224 97.9618 38.208C97.6338 39.1373 97.4698 40.6133 97.4698 42.636V83.308C97.4698 85.276 97.6338 86.752 97.9618 87.736C98.2898 88.72 98.9185 89.376 99.8478 89.704C100.832 90.032 102.253 90.2507 104.112 90.36V92C102.854 91.8907 101.269 91.836 99.3558 91.836C97.4971 91.7813 95.6111 91.754 93.6978 91.754C91.5658 91.754 89.5705 91.7813 87.7118 91.836C85.8531 91.836 84.3498 91.8907 83.2018 92V90.36C85.0605 90.2507 86.4545 90.032 87.3838 89.704C88.3678 89.376 89.0238 88.72 89.3518 87.736C89.6798 86.752 89.8438 85.276 89.8438 83.308V42.636C89.8438 40.6133 89.6798 39.1373 89.3518 38.208C89.0238 37.224 88.3678 36.568 87.3838 36.24C86.4545 35.8573 85.0605 35.6387 83.2018 35.584V33.944C84.3498 33.9987 85.8531 34.0533 87.7118 34.108C89.5705 34.1627 91.5658 34.19 93.6978 34.19C95.6111 34.19 97.4971 34.1627 99.3558 34.108C101.269 34.0533 102.854 33.9987 104.112 33.944ZM159.074 42.308V61.66H178.098V64.12H159.074V83.39H156.122V64.12H137.016V61.66H156.122V42.308H159.074Z" fill="#333333"/>
</svg>
