<svg width="611" height="633" viewBox="0 0 611 633" fill="none" xmlns="http://www.w3.org/2000/svg">
<path d="M487.912 492.349C491.231 488.689 272.334 285.593 -0.937353 38.9206L-12.7978 52.0939C260.48 298.873 484.541 496.013 487.912 492.349Z" fill="#B4703D"/>
<path d="M-0.937297 38.9206L-12.7977 52.0939C39.7698 99.6205 90.5774 145.267 138.339 187.984L149.647 175.43C102.237 132.319 51.6834 86.4442 -0.937297 38.9206Z" fill="#030800"/>
<path d="M482.211 483.954C482.814 483.279 265.732 284.946 -2.74885 40.8929L-5.17483 43.3274C263.519 287.369 481.609 484.629 482.211 483.954Z" fill="#FCFBE6"/>
<path d="M489.227 420.425C523.423 435.352 546.475 458.12 540.752 471.271L505.985 551.108C497.704 570.069 463.354 573.38 429.157 558.453C394.96 543.526 374.047 516.04 382.265 496.923L417.041 417.245C422.764 404.094 455.083 405.494 489.227 420.425Z" fill="#030800"/>
<g clip-path="url(#clip0_1203_15624)">
<g style="mix-blend-mode:multiply">
<path d="M327.11 605.375C327.355 604.733 327.726 604.148 328.201 603.652C325.752 602.46 325.006 599.524 326.708 595.79C327.482 594.017 328.568 592.399 329.915 591.012C328.381 590.368 327.072 589.282 326.154 587.892C325.685 587.033 325.392 586.089 325.291 585.115C325.191 584.142 325.286 583.158 325.571 582.221C325.856 581.285 326.324 580.415 326.949 579.662C327.574 578.91 328.343 578.29 329.21 577.839C325.304 576.688 323.779 574.137 325.468 571.826C327.4 570.062 329.663 568.699 332.125 567.816C334.587 566.933 337.199 566.547 339.811 566.681L340.226 566.129C339.892 565.861 339.52 565.647 339.231 565.371C338.368 564.643 337.709 563.703 337.319 562.643C336.928 561.583 336.82 560.439 337.004 559.325C337.188 558.21 337.659 557.162 338.369 556.285C339.08 555.408 340.007 554.731 341.058 554.32C342.004 553.809 343.008 553.411 344.048 553.136C346.421 548.974 350.15 545.756 354.611 544.022C357.217 542.713 359.954 541.684 362.776 540.953C362.766 540.416 362.824 539.88 362.946 539.358C363.609 536.776 364.969 534.428 366.876 532.57C368.783 530.711 371.165 529.415 373.76 528.823L375.037 528.579C378.918 524.928 383.868 522.625 389.157 522.009C390.939 521.696 392.746 521.543 394.555 521.55C394.498 521.372 394.464 521.188 394.451 521.002C394.033 518.509 394.538 515.948 395.872 513.802C397.206 511.656 399.277 510.072 401.695 509.347C402.909 508.901 404.189 508.657 405.482 508.626C409.792 504.766 415.23 502.402 420.989 501.886C423.476 501.467 426.01 501.4 428.516 501.685C429.447 499.175 430.996 496.941 433.02 495.19C435.043 493.439 437.475 492.228 440.09 491.669C441.418 491.295 442.838 491.45 444.055 492.101C445.271 492.752 446.189 493.849 446.616 495.163C446.573 494.934 446.749 494.616 446.88 494.307C447.959 491.769 449.646 489.537 451.792 487.807C453.937 486.077 456.475 484.903 459.182 484.389C460.368 484.243 461.571 484.441 462.647 484.961C466.64 482.356 471.222 480.8 475.973 480.436C478.42 480.136 480.9 480.24 483.314 480.744C484.442 478.45 486.081 476.446 488.105 474.886C490.129 473.327 492.484 472.254 494.987 471.75C495.87 471.519 496.798 471.519 497.681 471.753C498.564 471.986 499.371 472.444 500.025 473.082C500.68 473.72 501.158 474.516 501.414 475.394C501.67 476.272 501.695 477.201 501.487 478.091C503.07 475.613 505.171 473.509 507.647 471.926C510.122 470.343 512.912 469.318 515.823 468.922C516.638 468.765 517.48 468.83 518.262 469.11C519.043 469.389 519.736 469.874 520.267 470.512C520.799 471.151 521.15 471.92 521.284 472.741C521.418 473.561 521.33 474.402 521.03 475.177C522.848 472.81 525.141 470.85 527.76 469.421C530.38 467.993 533.268 467.129 536.241 466.884C540.565 467.245 541.163 471.393 538.02 476.254L539.658 475.421C547.1 471.779 554.579 470.829 556.369 473.283C557.117 474.23 556.803 475.568 555.714 477.054C557.661 475.981 559.84 475.404 562.062 475.372C566.825 475.555 567.641 479.852 563.902 485.062C565.223 485.191 566.504 485.589 567.667 486.231C568.829 486.873 569.849 487.745 570.663 488.796C571.538 489.99 571.993 491.44 571.958 492.921C571.923 494.401 571.398 495.828 570.467 496.978C574.04 496.867 576.501 497.63 576.868 499.312C577.235 500.995 573.818 504.913 568.491 507.489C571.008 507.294 572.926 507.687 573.745 508.763C575.626 511.199 571.005 516.246 563.435 519.959L561.999 520.612C563.352 521.017 564.23 521.655 564.467 522.652C565.04 525.669 558.882 530.345 550.694 533.04L550.465 533.083C552.347 533.53 553.496 534.353 553.548 535.622C553.665 538.726 547.283 542.971 539.328 545.148C538.05 545.391 536.818 545.625 535.677 545.842C538.577 547.422 539.42 549.866 537.394 552.146C533.417 555.413 528.33 557.009 523.203 556.599C520.351 560.865 516.043 563.941 511.086 565.25C508.509 566.224 505.832 566.909 503.104 567.29C503.099 567.644 503.071 567.997 503.021 568.348C502.4 571.07 501.03 573.562 499.066 575.543C497.102 577.524 494.623 578.914 491.91 579.555C489.977 580.01 487.944 579.682 486.251 578.643L485.619 580.042C484.184 582.551 482.185 584.691 479.78 586.291C477.375 587.891 474.631 588.908 471.765 589.261C470.798 589.305 469.838 589.077 468.993 588.605C468.799 589.458 468.426 590.259 467.897 590.956C467.369 591.653 466.698 592.229 465.93 592.645C464.129 593.689 462.121 594.325 460.047 594.507C457.974 594.688 455.886 594.412 453.93 593.697C453.854 594.227 453.659 594.733 453.361 595.178C451.115 598.542 443.557 601.07 436.416 600.818C434.9 600.783 433.391 600.594 431.912 600.255C431.658 602.693 430.682 604.999 429.109 606.876C427.536 608.754 425.438 610.117 423.084 610.79C421.615 611.311 420.03 611.413 418.507 611.084C416.983 610.755 415.581 610.009 414.456 608.928C413.868 610.259 412.896 611.384 411.665 612.158C409.327 613.499 406.673 614.186 403.98 614.149C401.286 614.112 398.652 613.351 396.352 611.947C395.753 613.114 394.842 614.091 393.72 614.768C391.29 616.161 388.532 616.878 385.732 616.845C382.933 616.811 380.193 616.029 377.796 614.578C377.23 615.459 376.488 616.213 375.616 616.792C373.251 618.183 370.563 618.928 367.821 618.951C365.079 618.974 362.378 618.275 359.99 616.924C359.198 616.491 358.5 615.904 357.936 615.199C357.372 614.493 356.953 613.683 356.704 612.814C351.361 616.056 345.553 617.588 343.169 616.242C340.786 614.896 341.845 611.758 345.451 608.088C343.63 608.603 341.767 608.958 339.884 609.148C331.771 610.502 326.14 608.732 327.11 605.375Z" fill="#B8B5AA"/>
</g>
<path d="M309.512 542.327C309.733 541.4 310.148 540.53 310.73 539.775C309.414 537.658 308.601 535.267 308.351 532.786C308.101 530.305 308.422 527.8 309.289 525.463C310.021 523.019 311.188 520.727 312.733 518.698C310.983 516.521 309.686 514.013 308.921 511.325C306.711 504.168 308.326 497.231 312.457 494.835C310.583 493.465 309.209 491.518 308.547 489.291C307.885 487.064 307.971 484.681 308.793 482.509C311.199 478.499 317.701 477.877 324.032 480.84L324.478 479.95C324.128 479.353 323.787 478.803 323.475 478.152C319.731 470.387 320.774 462.185 325.753 459.769C326.74 459.321 327.819 459.115 328.902 459.17C329.84 456.635 331.355 454.353 333.327 452.506C335.299 450.659 337.674 449.298 340.263 448.531C342.991 447.437 345.904 446.883 348.842 446.899C348.857 445.994 348.938 445.092 349.087 444.2C350.284 436.063 355.497 430.146 360.746 430.899C361.21 431.02 361.665 431.17 362.109 431.351C363.889 429.231 366.23 427.658 368.864 426.814C371.498 425.969 374.316 425.887 376.995 426.576C378.94 426.887 380.833 427.467 382.618 428.3L382.445 427.386C381.332 418.789 384.948 411.187 390.548 410.547C391.918 410.356 393.314 410.586 394.551 411.206C396.56 408.996 399.153 407.399 402.03 406.6C404.907 405.801 407.95 405.833 410.81 406.692C413.655 407.237 416.367 408.329 418.797 409.907C420.692 402.206 426.109 396.866 431.208 398.074C433.132 398.793 434.788 400.086 435.955 401.778C437.122 403.47 437.742 405.479 437.733 407.535C437.655 407.124 437.896 406.652 438.046 406.197C440.252 398.389 446.186 393.282 451.183 394.699C452.626 395.17 453.879 396.094 454.757 397.334C456.838 395.989 459.197 395.136 461.656 394.84C464.115 394.545 466.609 394.814 468.949 395.628C471.777 396.465 474.39 397.907 476.608 399.854C479.041 392.997 484.303 388.586 488.875 389.752C493.447 390.919 496.15 396.94 495.446 403.941C499.169 396.65 505.758 392.507 510.675 394.744C512.696 396.084 514.232 398.04 515.057 400.322C515.882 402.605 515.952 405.092 515.257 407.417C519.793 400.681 526.839 397.446 531.378 400.181C535.916 402.917 536.292 410.375 532.709 417.403C533.255 417.107 533.824 416.856 534.411 416.653C542.254 413.882 550.089 415.801 551.863 420.909C552.255 421.942 552.418 423.048 552.342 424.15C552.265 425.252 551.951 426.324 551.42 427.292C552.469 426.812 553.611 426.569 554.765 426.578C555.918 426.588 557.056 426.85 558.098 427.348C562.793 429.911 563.438 437.792 559.67 445.092C562.927 447.554 565.342 450.966 566.584 454.858C567.487 457.146 567.913 459.594 567.835 462.052C567.757 464.511 567.176 466.927 566.13 469.152C567.772 469.623 569.252 470.538 570.409 471.797C571.565 473.055 572.353 474.609 572.686 476.287C573.111 480.516 569.511 484.468 563.661 486.529C564.896 486.811 566.047 487.38 567.022 488.19C567.997 489 568.769 490.028 569.274 491.191C571.157 496.373 566.166 502.959 558.157 505.856L556.606 506.151C557.97 507.363 558.843 509.034 559.058 510.847C559.597 516.427 552.99 521.473 544.38 522.449C545.283 523.156 546.024 524.049 546.552 525.068C547.08 526.087 547.383 527.208 547.44 528.354C547.471 533.747 540.688 538.116 532.324 538.145C531.047 538.155 529.772 538.032 528.52 537.78C529.945 539.412 530.826 541.449 531.041 543.607C531.256 545.765 530.793 547.936 529.718 549.818C527.022 553.551 521.007 553.748 514.822 550.805C513.712 553.365 511.915 555.566 509.63 557.163C507.346 558.76 504.663 559.691 501.881 559.851C499.102 560.32 496.257 560.233 493.511 559.597C493.624 560.191 493.463 560.837 493.384 561.42C492.319 570.005 486.774 576.412 481.433 575.676C480.197 575.46 479.028 574.96 478.017 574.216C477.007 573.471 476.181 572.503 475.606 571.386C475.363 572.095 475.165 572.796 474.876 573.514C471.764 580.784 465.385 584.792 460.746 583.023C459.566 582.517 458.565 581.668 457.872 580.586C457.765 581.709 457.411 582.795 456.835 583.764C456.258 584.734 455.474 585.563 454.539 586.193C451.012 588.285 445.991 586.493 442.022 582.276C441.936 583.075 441.717 583.853 441.372 584.578C438.921 589.354 430.942 590.162 423.561 586.405C421.881 585.538 420.312 584.468 418.89 583.221C418.571 591.001 414.503 597.221 409.336 597.399C407.292 597.203 405.352 596.406 403.759 595.108C402.166 593.81 400.992 592.069 400.385 590.105C399.953 591.844 398.894 593.361 397.411 594.364C392.921 597.113 385.801 593.732 381.503 586.783C380.983 588.288 379.981 589.577 378.653 590.451C373.998 593.326 366.561 589.769 362.11 582.518C361.586 583.671 360.762 584.662 359.724 585.387C355.268 588.319 348.029 585.055 343.511 578.196C341.802 575.585 340.719 572.614 340.35 569.515C334.653 572.635 328.541 572.567 326.06 568.966C323.58 565.366 324.446 560.465 328.315 555.94L328.263 555.666C326.315 555.783 324.361 555.629 322.455 555.208C314.181 553.468 308.359 547.709 309.512 542.327Z" fill="#ECE2AC"/>
<path d="M356.057 491.368C355.67 490.826 355.292 490.33 354.943 489.733C350.716 482.913 350.899 475.159 355.343 472.419C356.572 471.77 357.946 471.447 359.335 471.481C360.724 471.515 362.081 471.905 363.277 472.614C359.937 466.477 360.145 459.855 364.014 457.319C364.976 456.752 366.055 456.412 367.168 456.323C368.282 456.234 369.401 456.399 370.441 456.806C371.35 452.777 373.73 449.233 377.113 446.87C378.909 445.522 380.917 444.483 383.055 443.798C382.497 442.545 382.347 441.148 382.628 439.806C383.722 434.862 390.883 431.984 398.712 433.62C400.337 433.973 401.916 434.515 403.416 435.235C403.529 433.772 403.793 432.325 404.204 430.917C406.451 423.575 412.117 418.803 416.886 420.264C416.843 420.035 416.808 419.852 416.765 419.624C417.214 417.814 418.337 416.245 419.904 415.238C420.254 414.208 420.832 413.27 421.593 412.494C422.354 411.718 423.28 411.124 424.301 410.754C425.684 410.457 427.12 410.519 428.473 410.933C429.825 411.346 431.05 412.099 432.032 413.119L433.625 413.29C436.299 413.893 438.828 415.021 441.064 416.61C442.846 409.309 448.178 404.269 452.823 405.327C454.68 405.968 456.294 407.168 457.444 408.764C458.593 410.36 459.222 412.272 459.244 414.239C459.166 413.828 459.407 413.356 459.52 412.956C461.578 405.366 467.216 400.693 471.933 401.88C472.767 402.14 473.541 402.565 474.208 403.129C474.875 403.694 475.423 404.386 475.82 405.165C477.76 404.105 479.898 403.458 482.1 403.268C484.302 403.077 486.519 403.346 488.613 404.057C491.921 404.931 494.925 406.703 497.292 409.178C498.102 407.146 499.544 405.43 501.404 404.282C503.264 403.135 505.444 402.618 507.62 402.808C512.129 403.892 514.632 409.856 513.711 416.709C517.077 409.533 523.612 405.353 528.338 407.579C533.064 409.806 534.27 417.154 531.258 424.451C532.638 423.063 534.404 422.124 536.326 421.759C538.248 421.393 540.235 421.617 542.028 422.402C546.566 425.138 546.784 433.005 542.536 440.017C542.322 440.389 542.046 440.679 541.833 441.051C548.987 438.884 555.94 440.639 557.482 445.271C558.75 448.961 556.321 453.354 551.792 456.394C555.6 459.269 556.007 466.39 552.4 473.043C551.123 475.451 549.37 477.573 547.248 479.28C547.859 480.367 548.376 481.505 548.792 482.68C551.363 490.242 549.479 497.752 544.598 499.438C544.289 499.544 543.966 499.606 543.64 499.621C544.012 504.57 538.439 509.087 530.977 510.129C532.17 514.921 527.597 520.717 520.347 523.375C518.857 523.812 517.329 524.103 515.783 524.244C514.73 528.659 509.156 532.419 502.098 533.099C501.192 533.18 500.282 533.21 499.373 533.192C499.008 537.997 492.821 542.016 485.167 542.051C483.656 542.017 482.151 541.844 480.672 541.534C481.061 542.625 481.193 543.791 481.059 544.942C480.925 546.093 480.528 547.197 479.898 548.169C476.916 552.383 469.23 551.999 462.76 547.31L462.146 546.811C459.411 549.89 455.653 551.867 451.57 552.376C448.011 553.135 444.305 552.8 440.938 551.415C439.217 558.041 434.755 562.679 430.15 562.087C425.546 561.495 422.356 555.899 422.366 548.982L421.973 550.146C419.02 557.007 413.023 561.037 408.595 559.133C407.406 558.52 406.397 557.606 405.669 556.481C404.941 555.357 404.52 554.062 404.447 552.724C404.003 553.303 403.454 553.792 402.83 554.168C398.579 556.682 392.15 553.454 388.312 546.938C387.82 546.104 387.387 545.237 387.015 544.343C383.262 544.815 379.456 544.099 376.129 542.295C372.812 540.673 370.051 538.099 368.2 534.9C363.146 534.678 358.878 528.387 358.598 520.436C358.471 517.785 358.867 515.135 359.765 512.637C358.2 511.317 356.863 509.747 355.809 507.991C351.634 501.445 351.778 493.982 356.057 491.368Z" fill="#FCFBE6"/>
<path d="M445.157 507.895C438.766 494.904 451.392 475.737 473.268 464.943C495.145 454.15 518.069 455.85 524.534 468.732C531 481.615 518.337 500.837 496.415 511.638C474.493 522.44 451.531 520.795 445.157 507.895Z" fill="white"/>
<path d="M578.688 428.214C560.362 411.385 494.657 361.186 437.261 378.407C379.866 395.627 291.297 449.137 297.186 546.142C301.414 615.475 317.274 578.975 354.734 550.393C392.193 521.812 479.501 457.176 542.259 449.022C605.017 440.869 578.688 428.214 578.688 428.214Z" fill="#E61300"/>
<path d="M309.616 578.49C313.906 577.674 320.974 571.072 329.128 563.459C336.336 556.51 343.894 549.935 351.771 543.758C428.362 485.188 489.67 451.216 533.799 442.818C536.263 442.349 538.727 441.88 541.189 441.648C546.955 440.883 552.237 440.067 556.801 439.199C578.478 435.074 579.848 430.835 579.839 430.789C579.024 429.503 577.844 428.491 576.45 427.882L575.979 427.64L575.572 427.244C572.681 424.716 506.274 364.847 445.534 376.406C442.882 376.91 440.257 377.551 437.672 378.328C422.816 382.766 293.09 425.211 300.192 542.303C301.47 563.228 303.944 575.26 307.552 578.078C307.838 578.308 308.174 578.466 308.534 578.538C308.893 578.609 309.265 578.593 309.616 578.49Z" fill="#F4493A"/>
<path d="M437.262 378.407C494.657 361.186 560.362 411.385 578.689 428.214C579.262 428.494 579.813 428.817 580.338 429.179C572.455 430.354 564.501 430.981 556.532 431.057C495.912 431.795 410.59 470.527 372.24 496.91C333.89 523.293 300.261 530.213 303.328 495.816C323.947 430.09 390.921 392.34 437.262 378.407Z" fill="#FF685A"/>
<g style="mix-blend-mode:color-dodge" opacity="0.3">
<g style="mix-blend-mode:color-dodge">
<path d="M457.439 386.312C451.564 383.262 445.322 380.52 439.106 377.914C441.114 377.532 443.076 377.158 445.084 376.776C482.245 393.294 515.185 418.033 541.428 449.133L538.097 449.767C515.605 423.544 488.203 401.986 457.439 386.312Z" fill="white"/>
</g>
<g style="mix-blend-mode:color-dodge">
<path d="M481.465 469.021C471.977 459.89 461.8 451.503 451.027 443.936C442.915 438.124 434.428 432.857 425.621 428.169C408.84 419.935 391.283 413.392 373.21 408.639C376.024 406.777 378.81 405.016 381.66 403.337C388.964 405.398 396.118 407.96 403.07 411.007C412.348 414.431 421.381 418.487 430.105 423.149C438.775 427.787 447.094 433.058 454.992 438.919C465.672 446.629 475.651 455.268 484.813 464.737L486.536 466.588L481.548 468.958L481.465 469.021Z" fill="white"/>
</g>
<g style="mix-blend-mode:color-dodge">
<path d="M505.515 458.714C489.441 442.492 471.569 428.16 452.248 415.999C441.873 409.402 431.044 403.55 419.843 398.486C413.999 396.094 408.015 393.965 401.975 392.036C405.643 390.438 409.485 388.76 413.18 387.299C416.03 388.367 418.918 389.38 421.669 390.42C433.116 395.351 444.164 401.165 454.713 407.811C475.954 421.159 495.115 437.572 511.576 456.519L505.515 458.714Z" fill="white"/>
</g>
<g style="mix-blend-mode:color-dodge">
<path d="M491.592 378.913C503.322 382.128 514.695 386.533 525.532 392.061C544.28 406.499 561.258 423.107 576.111 441.539C574.08 442.361 572.005 443.072 569.896 443.669L567.932 441.296C545.202 417.374 519.553 396.415 491.592 378.913Z" fill="white"/>
</g>
<g style="mix-blend-mode:color-dodge">
<path d="M297.617 523.518C311.73 523.659 325.717 526.185 338.991 530.989C347.78 534.342 356.303 538.356 364.487 542.997L362.084 544.78C342.877 535.269 320.638 532.445 297.045 532.956C297.103 529.773 297.314 526.654 297.617 523.518Z" fill="white"/>
</g>
<g style="mix-blend-mode:color-dodge">
<path d="M298.888 513.52C299.804 508.179 301.044 502.898 302.599 497.707C334.494 498.836 364.466 506.771 389.102 524.957L386.066 527.145C361.033 513.345 330.79 510.954 298.888 513.52Z" fill="white"/>
</g>
<g style="mix-blend-mode:color-dodge">
<path d="M297.93 556.041C297.678 554.716 297.7 553.338 297.56 551.849C312.321 553.128 326.811 556.595 340.556 562.137L338.102 564.404C325.221 559.558 311.671 556.738 297.93 556.041Z" fill="white"/>
</g>
<g style="mix-blend-mode:color-dodge">
<path d="M431.583 459.57C405.767 443.593 376.88 433.244 346.805 429.197C350.352 425.965 354.014 423.09 357.67 419.931C391.001 424.264 422.32 438.334 447.72 460.383C453.857 465.568 459.543 471.267 464.714 477.418L459.394 480.278C450.696 472.636 441.396 465.711 431.583 459.57Z" fill="white"/>
</g>
<g style="mix-blend-mode:color-dodge">
<path d="M309.145 479.886C310.587 476.77 312.1 473.783 313.713 470.824C351.813 470.014 387.897 479.013 417.565 505.523L411.139 509.777C380.528 488.513 345.667 480.229 309.145 479.886Z" fill="white"/>
</g>
<g style="mix-blend-mode:color-dodge">
<path d="M325.131 453.26C326.755 451.104 328.424 448.939 330.157 446.857C370.349 450.101 408.509 464.056 438.506 492.54L434.95 494.732C404.062 469.022 365.482 456.094 325.131 453.26Z" fill="white"/>
</g>
</g>
<path d="M374.75 416.254C372.612 410.221 391.083 398.181 416.047 389.453C441.011 380.724 462.88 378.362 465.019 384.396C467.157 390.43 444.817 391.555 419.87 400.375C394.924 409.195 376.889 422.288 374.75 416.254Z" fill="white"/>
<path d="M309.52 521.206C303.919 518.104 307.349 501.302 317.108 483.722C326.868 466.142 339.342 454.391 344.943 457.493C350.544 460.595 329.37 469.36 327.333 489.259C323.527 523.75 315.084 524.362 309.52 521.206Z" fill="white"/>
</g>
<g style="mix-blend-mode:color-dodge" opacity="0.3">
<path d="M493.305 551.55C496.94 553.538 509.285 527.08 515.692 515.655C522.098 504.23 530.272 490.033 526.741 487.985C523.21 485.938 521.321 503.685 513.152 515.102C500.138 533.418 489.668 549.508 493.305 551.55Z" fill="white"/>
</g>
<path d="M467.191 510.295C470.119 506.336 232.212 326.008 -64.0901 107.515L-74.6049 121.843C221.751 340.333 464.21 514.258 467.191 510.295Z" fill="#B4703D"/>
<path d="M-64.0903 107.515L-74.6051 121.843C-17.5377 163.932 37.5127 204.317 89.2302 242.375L99.1452 228.776C47.8295 190.267 -7.07616 149.608 -64.0903 107.515Z" fill="#030800"/>
<path d="M460.725 502.531C461.269 501.752 225.587 325.898 -65.6796 109.636L-67.6118 112.31C223.655 328.572 460.179 503.257 460.725 502.531Z" fill="#FCFBE6"/>
<path opacity="0.04" d="M547.243 87.7499L339.163 87.873L339.181 117.633L518.221 117.527L518.284 224.327L339.484 224.433L339.502 255.393L547.342 255.27L547.243 87.7499ZM466.615 108.198L438.055 108.215L438.132 237.334L466.692 237.318L466.615 108.198ZM383.815 108.007L354.775 108.024L354.852 237.384L383.892 237.367L383.815 108.007ZM239.07 65.1322L209.79 65.1495L209.915 277.549L239.195 277.532L239.07 65.1322ZM130.139 114.637L100.859 114.654L100.925 226.014L130.205 225.997L130.139 114.637ZM285.683 155.585L60.3232 155.718L60.3414 186.438L285.701 186.305L285.683 155.585ZM228.558 146.978C184.388 129.965 141.167 95.1901 119.544 55.8429C113.788 62.3263 102.754 71.9329 95.5565 76.7371C121.981 118.721 167.841 152.774 220.174 173.383L228.558 146.978ZM227.866 194.979L219.211 168.824C168.103 189.734 122.283 223.361 96.3882 265.617C104.551 270.412 116.557 280.725 122.561 287.921C143.418 247.589 185.157 212.524 227.866 194.979ZM-14.7881 170.402C-39.4952 192.257 -66.1108 233.553 -80.9703 268.122C-72.5673 273.157 -62.4835 279.631 -55.2795 286.346C-43.3017 248.899 -19.5644 210.485 10.4197 183.587L10.4024 154.307C-14.3288 135.362 -42.6718 96.4989 -58.0552 56.908C-64.0518 62.6715 -74.8474 70.1179 -81.5655 73.4819C-65.2229 111.632 -38.8003 149.777 -14.7881 170.402ZM-91.1395 117.408L-111.779 117.42L-111.717 223.26L-91.0769 223.248L-91.1395 117.408ZM-37.8368 155.776L-70.2368 155.795L-70.2192 185.555L-37.8192 185.536L-37.8368 155.776ZM-186.925 74.7442L-213.562 78.6C-210.906 106.198 -207.524 144.116 -203.903 179.634L-178.223 179.379C-181.845 141.701 -184.989 101.623 -186.925 74.7442ZM-138.623 178.876L-145.358 154.4C-184.705 175.783 -207.004 211.076 -215.853 264.361C-208.17 268.197 -196.646 275.63 -190.642 281.866C-184.912 231.703 -167.893 195.933 -138.623 178.876ZM-133.781 249.673C-145.07 235.279 -159.724 211.528 -168.134 193.773L-183.724 211.062C-176.034 228.818 -163.3 251.85 -151.049 270.563L-133.781 249.673ZM-56.3395 117.387L-78.6595 117.4L-78.6027 213.4L-124.923 213.428L-124.979 117.428L-147.299 117.441L-147.225 242.481L-56.2655 242.427L-56.3395 117.387ZM-56.35 99.627L-193.39 99.708L-190.253 128.266L-56.3331 128.187L-56.35 99.627Z" fill="white"/>
<defs>
<clipPath id="clip0_1203_15624">
<rect width="304.739" height="226.15" fill="white" transform="matrix(-0.982371 0.18694 0.186545 0.982446 568.749 352.958)"/>
</clipPath>
</defs>
</svg>
