<svg width="127" height="19" viewBox="0 0 127 19" fill="none" xmlns="http://www.w3.org/2000/svg">
<g opacity="0.9">
<path d="M5.816 0.694046C6.76 0.694046 7.488 0.798047 8 1.00605C8.512 1.19805 8.952 1.40605 9.32 1.63005C9.512 1.74205 9.664 1.83005 9.776 1.89405C9.904 1.94205 10.024 1.96605 10.136 1.96605C10.296 1.96605 10.408 1.87805 10.472 1.70205C10.552 1.52605 10.616 1.26205 10.664 0.910047H11.216C11.2 1.21405 11.176 1.58205 11.144 2.01405C11.128 2.43005 11.112 2.98205 11.096 3.67005C11.096 4.35805 11.096 5.26205 11.096 6.38205H10.544C10.48 5.55005 10.288 4.74205 9.968 3.95805C9.648 3.17405 9.192 2.53405 8.6 2.03805C8.024 1.52605 7.312 1.27005 6.464 1.27005C5.696 1.27005 5.064 1.48605 4.568 1.91805C4.072 2.35005 3.824 2.95005 3.824 3.71805C3.824 4.35805 3.984 4.91005 4.304 5.37405C4.624 5.82205 5.088 6.26205 5.696 6.69405C6.32 7.12605 7.072 7.64605 7.952 8.25405C8.72 8.75005 9.408 9.24605 10.016 9.74205C10.624 10.238 11.112 10.798 11.48 11.422C11.848 12.046 12.032 12.79 12.032 13.654C12.032 14.71 11.752 15.582 11.192 16.27C10.648 16.958 9.928 17.478 9.032 17.83C8.136 18.166 7.152 18.334 6.08 18.334C5.088 18.334 4.296 18.238 3.704 18.046C3.112 17.854 2.616 17.654 2.216 17.446C1.864 17.222 1.592 17.11 1.4 17.11C1.24 17.11 1.12 17.198 1.04 17.374C0.976 17.55 0.92 17.814 0.872 18.166H0.32C0.352 17.782 0.368 17.334 0.368 16.822C0.384 16.31 0.392 15.646 0.392 14.83C0.408 13.998 0.416 12.95 0.416 11.686H0.968C1.032 12.742 1.208 13.734 1.496 14.662C1.8 15.574 2.256 16.31 2.864 16.87C3.488 17.43 4.312 17.71 5.336 17.71C5.896 17.71 6.392 17.614 6.824 17.422C7.272 17.214 7.632 16.91 7.904 16.51C8.176 16.11 8.312 15.614 8.312 15.022C8.312 14.35 8.152 13.766 7.832 13.27C7.528 12.774 7.104 12.31 6.56 11.878C6.032 11.446 5.416 11.006 4.712 10.558C3.96 10.062 3.256 9.56605 2.6 9.07005C1.944 8.57405 1.416 8.00605 1.016 7.36605C0.632 6.72605 0.44 5.96605 0.44 5.08605C0.44 4.07805 0.688 3.25405 1.184 2.61405C1.696 1.95805 2.36 1.47805 3.176 1.17405C4.008 0.854046 4.888 0.694046 5.816 0.694046ZM29.1196 1.00605V1.48605C28.6076 1.55005 28.2156 1.68605 27.9436 1.89405C27.6876 2.08605 27.5196 2.39805 27.4396 2.83005C27.3596 3.26205 27.3196 3.87005 27.3196 4.65405V11.014C27.3196 12.054 27.2476 13.006 27.1036 13.87C26.9596 14.734 26.7036 15.478 26.3356 16.102C25.9196 16.79 25.3116 17.334 24.5116 17.734C23.7116 18.134 22.6956 18.334 21.4636 18.334C20.7276 18.334 19.9756 18.246 19.2076 18.07C18.4396 17.91 17.7516 17.598 17.1436 17.134C16.6316 16.702 16.2396 16.214 15.9676 15.67C15.6956 15.126 15.5116 14.486 15.4156 13.75C15.3196 12.998 15.2716 12.11 15.2716 11.086V3.55005C15.2716 2.95805 15.2236 2.52605 15.1276 2.25405C15.0476 1.96605 14.8796 1.77405 14.6236 1.67805C14.3676 1.56605 13.9836 1.50205 13.4716 1.48605V1.00605C13.8716 1.02205 14.4076 1.03805 15.0796 1.05405C15.7676 1.07005 16.4796 1.07805 17.2156 1.07805C17.9516 1.07805 18.6556 1.07005 19.3276 1.05405C20.0156 1.03805 20.5836 1.02205 21.0316 1.00605V1.48605C20.4876 1.50205 20.0716 1.56605 19.7836 1.67805C19.5116 1.77405 19.3276 1.96605 19.2316 2.25405C19.1356 2.52605 19.0876 2.95805 19.0876 3.55005V12.598C19.0876 13.398 19.1356 14.11 19.2316 14.734C19.3436 15.342 19.5196 15.854 19.7596 16.27C20.0156 16.67 20.3596 16.974 20.7916 17.182C21.2236 17.39 21.7596 17.494 22.3996 17.494C23.5196 17.494 24.3916 17.23 25.0156 16.702C25.6556 16.174 26.1036 15.446 26.3596 14.518C26.6316 13.574 26.7676 12.494 26.7676 11.278V4.94205C26.7676 4.06205 26.7116 3.39005 26.5996 2.92605C26.4876 2.44605 26.2636 2.10205 25.9276 1.89405C25.6076 1.68605 25.1116 1.55005 24.4396 1.48605V1.00605C24.7436 1.02205 25.1436 1.03805 25.6396 1.05405C26.1356 1.07005 26.5996 1.07805 27.0316 1.07805C27.4156 1.07805 27.7916 1.07005 28.1596 1.05405C28.5436 1.03805 28.8636 1.02205 29.1196 1.00605ZM36.3785 0.694046C37.3225 0.694046 38.0505 0.798047 38.5625 1.00605C39.0745 1.19805 39.5145 1.40605 39.8825 1.63005C40.0745 1.74205 40.2265 1.83005 40.3385 1.89405C40.4665 1.94205 40.5865 1.96605 40.6985 1.96605C40.8585 1.96605 40.9705 1.87805 41.0345 1.70205C41.1145 1.52605 41.1785 1.26205 41.2265 0.910047H41.7785C41.7625 1.21405 41.7385 1.58205 41.7065 2.01405C41.6905 2.43005 41.6745 2.98205 41.6585 3.67005C41.6585 4.35805 41.6585 5.26205 41.6585 6.38205H41.1065C41.0425 5.55005 40.8505 4.74205 40.5305 3.95805C40.2105 3.17405 39.7545 2.53405 39.1625 2.03805C38.5865 1.52605 37.8745 1.27005 37.0265 1.27005C36.2585 1.27005 35.6265 1.48605 35.1305 1.91805C34.6345 2.35005 34.3865 2.95005 34.3865 3.71805C34.3865 4.35805 34.5465 4.91005 34.8665 5.37405C35.1865 5.82205 35.6505 6.26205 36.2585 6.69405C36.8825 7.12605 37.6345 7.64605 38.5145 8.25405C39.2825 8.75005 39.9705 9.24605 40.5785 9.74205C41.1865 10.238 41.6745 10.798 42.0425 11.422C42.4105 12.046 42.5945 12.79 42.5945 13.654C42.5945 14.71 42.3145 15.582 41.7545 16.27C41.2105 16.958 40.4905 17.478 39.5945 17.83C38.6985 18.166 37.7145 18.334 36.6425 18.334C35.6505 18.334 34.8585 18.238 34.2665 18.046C33.6745 17.854 33.1785 17.654 32.7785 17.446C32.4265 17.222 32.1545 17.11 31.9625 17.11C31.8025 17.11 31.6825 17.198 31.6025 17.374C31.5385 17.55 31.4825 17.814 31.4345 18.166H30.8825C30.9145 17.782 30.9305 17.334 30.9305 16.822C30.9465 16.31 30.9545 15.646 30.9545 14.83C30.9705 13.998 30.9785 12.95 30.9785 11.686H31.5305C31.5945 12.742 31.7705 13.734 32.0585 14.662C32.3625 15.574 32.8185 16.31 33.4265 16.87C34.0505 17.43 34.8745 17.71 35.8985 17.71C36.4585 17.71 36.9545 17.614 37.3865 17.422C37.8345 17.214 38.1945 16.91 38.4665 16.51C38.7385 16.11 38.8745 15.614 38.8745 15.022C38.8745 14.35 38.7145 13.766 38.3945 13.27C38.0905 12.774 37.6665 12.31 37.1225 11.878C36.5945 11.446 35.9785 11.006 35.2745 10.558C34.5225 10.062 33.8185 9.56605 33.1625 9.07005C32.5065 8.57405 31.9785 8.00605 31.5785 7.36605C31.1945 6.72605 31.0025 5.96605 31.0025 5.08605C31.0025 4.07805 31.2505 3.25405 31.7465 2.61405C32.2585 1.95805 32.9225 1.47805 33.7385 1.17405C34.5705 0.854046 35.4505 0.694046 36.3785 0.694046ZM54.5701 17.998V17.518C55.0821 17.486 55.4661 17.422 55.7221 17.326C55.9781 17.23 56.1461 17.038 56.2261 16.75C56.3221 16.462 56.3701 16.03 56.3701 15.454V3.55005C56.3701 2.95805 56.3221 2.52605 56.2261 2.25405C56.1461 1.96605 55.9701 1.77405 55.6981 1.67805C55.4421 1.56605 55.0661 1.50205 54.5701 1.48605V1.00605C55.0021 1.02205 55.5621 1.03805 56.2501 1.05405C56.9541 1.07005 57.6501 1.07805 58.3381 1.07805C59.0741 1.07805 59.7621 1.07005 60.4021 1.05405C61.0581 1.03805 61.5861 1.02205 61.9861 1.00605V1.48605C61.4741 1.50205 61.0821 1.56605 60.8101 1.67805C60.5541 1.77405 60.3861 1.96605 60.3061 2.25405C60.2261 2.52605 60.1861 2.95805 60.1861 3.55005V15.454C60.1861 16.03 60.2261 16.462 60.3061 16.75C60.4021 17.038 60.5781 17.23 60.8341 17.326C61.0901 17.422 61.4741 17.486 61.9861 17.518V17.998C61.5861 17.966 61.0581 17.95 60.4021 17.95C59.7621 17.934 59.0741 17.926 58.3381 17.926C57.6501 17.926 56.9541 17.934 56.2501 17.95C55.5621 17.95 55.0021 17.966 54.5701 17.998ZM44.3941 17.998V17.518C44.9061 17.486 45.2901 17.422 45.5461 17.326C45.8021 17.23 45.9701 17.038 46.0501 16.75C46.1461 16.462 46.1941 16.03 46.1941 15.454V3.55005C46.1941 2.95805 46.1461 2.52605 46.0501 2.25405C45.9701 1.96605 45.7941 1.77405 45.5221 1.67805C45.2661 1.56605 44.8901 1.50205 44.3941 1.48605V1.00605C44.8101 1.02205 45.3461 1.03805 46.0021 1.05405C46.6741 1.07005 47.4021 1.07805 48.1861 1.07805C48.8581 1.07805 49.5221 1.07005 50.1781 1.05405C50.8341 1.03805 51.3781 1.02205 51.8101 1.00605V1.48605C51.2981 1.50205 50.9061 1.56605 50.6341 1.67805C50.3781 1.77405 50.2101 1.96605 50.1301 2.25405C50.0501 2.52605 50.0101 2.95805 50.0101 3.55005V15.454C50.0101 16.03 50.0501 16.462 50.1301 16.75C50.2261 17.038 50.4021 17.23 50.6581 17.326C50.9141 17.422 51.2981 17.486 51.8101 17.518V17.998C51.3781 17.966 50.8341 17.95 50.1781 17.95C49.5221 17.934 48.8581 17.926 48.1861 17.926C47.4021 17.926 46.6741 17.934 46.0021 17.95C45.3461 17.95 44.8101 17.966 44.3941 17.998ZM48.4501 9.69405V9.21405H57.9301V9.69405H48.4501ZM71.0054 1.00605V1.48605C70.4934 1.50205 70.1014 1.56605 69.8294 1.67805C69.5734 1.77405 69.4054 1.96605 69.3254 2.25405C69.2454 2.52605 69.2054 2.95805 69.2054 3.55005V15.454C69.2054 16.03 69.2454 16.462 69.3254 16.75C69.4214 17.038 69.5974 17.23 69.8534 17.326C70.1094 17.422 70.4934 17.486 71.0054 17.518V17.998C70.5734 17.966 70.0294 17.95 69.3734 17.95C68.7174 17.934 68.0534 17.926 67.3814 17.926C66.5974 17.926 65.8694 17.934 65.1974 17.95C64.5414 17.95 64.0054 17.966 63.5894 17.998V17.518C64.1014 17.486 64.4854 17.422 64.7414 17.326C64.9974 17.23 65.1654 17.038 65.2454 16.75C65.3414 16.462 65.3894 16.03 65.3894 15.454V3.55005C65.3894 2.95805 65.3414 2.52605 65.2454 2.25405C65.1654 1.96605 64.9894 1.77405 64.7174 1.67805C64.4614 1.56605 64.0854 1.50205 63.5894 1.48605V1.00605C64.0054 1.02205 64.5414 1.03805 65.1974 1.05405C65.8694 1.07005 66.5974 1.07805 67.3814 1.07805C68.0534 1.07805 68.7174 1.07005 69.3734 1.05405C70.0294 1.03805 70.5734 1.02205 71.0054 1.00605Z" fill="#B1454A"/>
<path d="M93.2529 1.00605V1.48605C92.7409 1.50205 92.3569 1.56605 92.1009 1.67805C91.8449 1.77405 91.6689 1.96605 91.5729 2.25405C91.4929 2.52605 91.4529 2.95805 91.4529 3.55005V15.454C91.4529 16.03 91.4929 16.462 91.5729 16.75C91.6689 17.038 91.8449 17.23 92.1009 17.326C92.3569 17.422 92.7409 17.486 93.2529 17.518V17.998C92.8049 17.966 92.2369 17.95 91.5489 17.95C90.8769 17.934 90.1889 17.926 89.4849 17.926C88.7169 17.926 87.9969 17.934 87.3249 17.95C86.6529 17.95 86.1089 17.966 85.6929 17.998V17.518C86.2369 17.486 86.6449 17.422 86.9169 17.326C87.2049 17.23 87.3969 17.038 87.4929 16.75C87.5889 16.462 87.6369 16.03 87.6369 15.454V2.47005H87.8049L81.8529 18.022H81.4689L74.9889 2.56605V14.062C74.9889 14.942 75.0369 15.622 75.1329 16.102C75.2289 16.566 75.4369 16.902 75.7569 17.11C76.0929 17.302 76.6129 17.438 77.3169 17.518V17.998C77.0129 17.966 76.6129 17.95 76.1169 17.95C75.6209 17.934 75.1569 17.926 74.7249 17.926C74.3569 17.926 73.9809 17.934 73.5969 17.95C73.2129 17.95 72.8929 17.966 72.6369 17.998V17.518C73.1489 17.438 73.5329 17.302 73.7889 17.11C74.0449 16.918 74.2129 16.606 74.2929 16.174C74.3889 15.726 74.4369 15.118 74.4369 14.35V3.55005C74.4369 2.95805 74.3889 2.52605 74.2929 2.25405C74.2129 1.96605 74.0369 1.77405 73.7649 1.67805C73.5089 1.56605 73.1329 1.50205 72.6369 1.48605V1.00605C72.8929 1.02205 73.2129 1.03805 73.5969 1.05405C73.9809 1.07005 74.3569 1.07805 74.7249 1.07805C75.4129 1.07805 76.0849 1.07005 76.7409 1.05405C77.4129 1.03805 78.0049 1.02205 78.5169 1.00605L83.5569 13.174L82.9569 13.726L87.7809 1.07805C88.0529 1.07805 88.3329 1.07805 88.6209 1.07805C88.9089 1.07805 89.1969 1.07805 89.4849 1.07805C90.1889 1.07805 90.8769 1.07005 91.5489 1.05405C92.2369 1.03805 92.8049 1.02205 93.2529 1.00605ZM102.871 0.958046L108.703 15.982C108.927 16.558 109.175 16.958 109.447 17.182C109.735 17.39 109.991 17.502 110.215 17.518V17.998C109.735 17.966 109.167 17.95 108.511 17.95C107.871 17.934 107.223 17.926 106.567 17.926C105.831 17.926 105.135 17.934 104.479 17.95C103.823 17.95 103.303 17.966 102.919 17.998V17.518C103.735 17.486 104.247 17.35 104.455 17.11C104.679 16.854 104.631 16.318 104.311 15.502L100.231 4.34205L100.663 3.71805L97.0151 13.222C96.6631 14.102 96.4471 14.822 96.3671 15.382C96.3031 15.942 96.3431 16.374 96.4871 16.678C96.6471 16.982 96.8951 17.198 97.2311 17.326C97.5831 17.438 97.9991 17.502 98.4791 17.518V17.998C97.9511 17.966 97.4471 17.95 96.9671 17.95C96.4871 17.934 95.9991 17.926 95.5031 17.926C95.1511 17.926 94.8151 17.934 94.4951 17.95C94.1911 17.95 93.9191 17.966 93.6791 17.998V17.518C94.0151 17.454 94.3591 17.238 94.7111 16.87C95.0631 16.502 95.4071 15.878 95.7431 14.998L101.215 0.958046C101.471 0.974046 101.743 0.982046 102.031 0.982046C102.335 0.982046 102.615 0.974046 102.871 0.958046ZM104.551 11.086V11.566H97.3991L97.6391 11.086H104.551ZM126.21 1.00605V1.48605C125.698 1.55005 125.314 1.68605 125.058 1.89405C124.802 2.08605 124.626 2.39805 124.53 2.83005C124.45 3.26205 124.41 3.87005 124.41 4.65405V18.046C124.218 18.03 124.018 18.022 123.81 18.022C123.618 18.022 123.41 18.03 123.186 18.046L112.77 4.84605V14.062C112.77 14.942 112.818 15.622 112.914 16.102C113.01 16.566 113.218 16.902 113.538 17.11C113.874 17.302 114.394 17.438 115.098 17.518V17.998C114.794 17.966 114.394 17.95 113.898 17.95C113.402 17.934 112.938 17.926 112.506 17.926C112.138 17.926 111.762 17.934 111.378 17.95C110.994 17.95 110.674 17.966 110.418 17.998V17.518C110.93 17.438 111.314 17.302 111.57 17.11C111.826 16.918 111.994 16.606 112.074 16.174C112.17 15.726 112.218 15.118 112.218 14.35V3.55005C112.218 2.95805 112.17 2.52605 112.074 2.25405C111.994 1.96605 111.818 1.77405 111.546 1.67805C111.29 1.56605 110.914 1.50205 110.418 1.48605V1.00605C110.674 1.02205 110.994 1.03805 111.378 1.05405C111.762 1.07005 112.138 1.07805 112.506 1.07805C112.89 1.07805 113.258 1.07005 113.61 1.05405C113.962 1.03805 114.282 1.02205 114.57 1.00605L123.858 12.454V4.94205C123.858 4.06205 123.81 3.39005 123.714 2.92605C123.618 2.44605 123.402 2.10205 123.066 1.89405C122.746 1.68605 122.234 1.55005 121.53 1.48605V1.00605C121.834 1.02205 122.234 1.03805 122.73 1.05405C123.226 1.07005 123.69 1.07805 124.122 1.07805C124.506 1.07805 124.882 1.07005 125.25 1.05405C125.634 1.03805 125.954 1.02205 126.21 1.00605Z" fill="#121212"/>
</g>
</svg>
