<svg width="117" height="382" viewBox="0 0 117 382" fill="none" xmlns="http://www.w3.org/2000/svg">
<path d="M16.36 0.319996V104.36H31.24V14.84H84.64V104.24H100.12V0.319996H16.36ZM26.56 40.64V54.92H91.12V40.64H26.56ZM26.44 82.04V96.56H91.12V82.04H26.44ZM4.96 154.4V169.04H111.16V154.4H4.96ZM29.68 208.88V223.52H85.36V208.88H29.68ZM50.2 131.12V243.8H65.56V131.12H50.2ZM45.88 159.68C37.36 181.76 19.96 203.36 0.28 214.16C3.52 217.04 8.32 222.56 10.72 226.16C31.72 212.96 48.76 190.04 59.08 163.88L45.88 159.68ZM69.88 160.04L56.8 164.36C67.24 189.92 84.04 212.84 105.16 225.8C107.56 221.72 112.72 215.72 116.32 212.72C96.16 202.28 78.64 181.4 69.88 160.04ZM57.52 281.36C68.44 293.72 89.08 307.04 106.36 314.48C108.88 310.28 112.12 305.24 115.48 301.64C96.76 295.64 77.56 283.76 64.12 268.76H49.48C40 281.12 20.56 295.28 0.76 302.96C3.64 305.96 7.36 311.36 9.04 314.72C28.12 306.56 47.2 293.36 57.52 281.36ZM31 319.52V329.84H83.92V319.52H31ZM50.2 292.88V309.08H65.08V292.88H50.2ZM9.64 367.4L11.56 380.72C25.36 379.4 44.32 377.72 62.08 375.92L61.96 363.08C43.12 364.88 23.08 366.44 9.64 367.4ZM61.72 343.28L49.48 346.64C60.16 366.32 77.8 377.48 104.44 381.92C106.36 378.08 110.08 372.32 113.2 369.32C88.12 366.44 70.24 357.92 61.72 343.28ZM97.12 340.88C89.92 346.52 78.04 353.84 69.16 358.04L77.8 365.84C86.68 362 98.2 355.64 107.56 349.52L97.12 340.88ZM31 302.12V313.28H79V336.44H31V347.6H93.52V302.12H31ZM22.12 302.12V370.64L36.4 369.08V302.12H22.12Z" fill="white"/>
</svg>
