<svg width="32" height="32" viewBox="0 0 32 32" fill="none" xmlns="http://www.w3.org/2000/svg">
<path d="M15.0064 5.56917C15.413 4.74546 16.5876 4.74546 16.9942 5.56917L19.8627 11.3804C20.024 11.7072 20.3357 11.9338 20.6963 11.9865L27.1127 12.9244C28.0215 13.0572 28.3837 14.1743 27.7258 14.8151L23.0846 19.3356C22.8232 19.5902 22.7039 19.9572 22.7655 20.3169L23.8606 26.7018C24.0159 27.6073 23.0654 28.2978 22.2523 27.8702L16.5162 24.8536C16.1933 24.6838 15.8074 24.6838 15.4844 24.8536L9.74834 27.8702C8.93521 28.2978 7.98472 27.6073 8.14002 26.7018L9.23511 20.3169C9.2968 19.9572 9.17747 19.5902 8.91604 19.3356L4.27489 14.8151C3.61696 14.1743 3.97916 13.0572 4.88793 12.9244L11.3044 11.9865C11.665 11.9338 11.9767 11.7072 12.138 11.3804L15.0064 5.56917Z" fill="#F9B043"/>
</svg>
