<svg width="104" height="239" viewBox="0 0 104 239" fill="none" xmlns="http://www.w3.org/2000/svg">
<path opacity="0.1" d="M48.76 0.519994L33.76 5.43999C37.24 12.88 43.96 30.4 46.24 37.96L61.36 32.68C58.96 25 51.64 6.51999 48.76 0.519994ZM103.48 10.12L85.6 5.07999C83.56 23.44 76.12 43.96 67.12 55.36C54.76 70.84 36.04 81.64 19.72 86.32L33.16 99.88C50.2 93.4 67.72 81.28 80.32 64.6C90.16 51.64 97 32.56 100.36 19.48C101.08 16.84 102.16 13.12 103.48 10.12ZM15.28 7.96L0.0399997 13.36C3.4 19.72 11.32 39.52 13.84 47.2L29.2 41.56C26.44 33.52 19 15.64 15.28 7.96ZM46.96 151.12C46.96 157.84 46.96 166.96 46.96 175C46.96 197.32 39.52 216.16 14.2 227.8L29.2 238.84C56.68 222.4 63.4 201.04 63.4 175C63.4 166.96 63.4 157.96 63.4 151.24C63.4 147.52 63.76 140.92 64.36 137.08H45.4C46.48 140.92 46.96 147.16 46.96 151.12ZM2.32 163.48V180.16C6.16 179.8 10.96 179.56 16.12 179.56C22.6 179.56 83.08 179.56 90.28 179.56C95.08 179.56 101.08 179.8 103.6 180.04V163.6C101.08 163.96 95.92 164.32 90.4 164.32C83.08 164.32 22.6 164.32 15.76 164.32C10.96 164.32 6.04 163.96 2.32 163.48Z" fill="#B1454A"/>
</svg>
