<svg width="105" height="228" viewBox="0 0 105 228" fill="none" xmlns="http://www.w3.org/2000/svg">
<path opacity="0.1" d="M8.56 0.239997V16.8C11.68 16.44 16.72 16.2 19.96 16.2H85.36C88.84 16.2 93.04 16.44 96.52 16.8V0.239997C93.16 0.719998 88.96 1.07999 85.36 1.07999H19.96C16.72 1.07999 11.68 0.719998 8.56 0.239997ZM43.24 74.16H59.92V9.47999H43.24V74.16ZM0.88 64.32V81.6C4.84 81.24 9.16 81.12 12.64 81.12H91.84C94.6 81.12 99.64 81.24 103 81.6V64.32C99.88 64.68 96.04 65.28 91.84 65.28H12.64C9.04 65.28 4.72 64.92 0.88 64.32ZM80.56 124.8L71.08 128.76C74.32 133.44 77.92 140.52 80.44 145.44L90.04 141.24C87.76 136.8 83.56 129.24 80.56 124.8ZM94.72 119.4L85.24 123.36C88.48 127.92 92.44 134.88 94.84 139.92L104.44 135.72C102.28 131.52 97.84 123.96 94.72 119.4ZM28.72 130.08H11.08C11.56 133.68 11.92 139.8 11.92 142.56C11.92 150 11.92 194.04 11.92 207.84C11.92 218.28 18.04 223.92 28.36 225.84C33.52 226.68 40.84 227.16 48.64 227.16C61.84 227.16 79.96 226.44 91.36 224.76V207.24C81.4 209.88 62.08 211.32 49.48 211.32C44.2 211.32 39.28 211.2 35.68 210.6C30.28 209.64 27.88 208.32 27.88 203.04C27.88 194.04 27.88 149.88 27.88 142.56C27.88 139.08 28.24 133.68 28.72 130.08ZM20.8 166.92L20.92 182.64C37.24 178.8 60.76 171.72 74.92 166.32C78.88 164.76 84.28 162.48 88.84 160.56L82.48 145.44C77.68 148.2 73.6 150.12 69.4 151.92C56.8 157.08 36.28 163.56 20.8 166.92Z" fill="#B1454A"/>
</svg>
